<svg width="88" height="37" viewBox="0 0 88 37" fill="none" xmlns="http://www.w3.org/2000/svg">
<path d="M42.8161 36.0996C37.8308 36.0896 32.9367 34.7621 28.6296 32.2516C24.8298 30.0357 21.5892 26.9774 19.1572 23.3123L20.2057 20.5617C21.6653 22.2392 23.2757 23.7794 25.0166 25.1627C26.7199 26.5172 28.5628 27.6862 30.514 28.65C32.4361 29.6022 34.4605 30.3318 36.5481 30.8248C38.6203 31.3149 40.7421 31.5638 42.8714 31.5665H42.8953C45.0206 31.5651 47.1386 31.3183 49.2073 30.8311C51.2909 30.3402 53.3119 29.614 55.2313 28.6663C57.1853 27.7036 59.0311 26.5354 60.7375 25.1816C62.482 23.7974 64.0958 22.256 65.5585 20.5768L66.578 23.2481C64.1497 26.9307 60.9059 30.0046 57.0982 32.2315C52.7853 34.7545 47.8807 36.0892 42.884 36.0996H42.8161ZM36.4715 20.0526C35.3307 20.0498 34.1943 19.9118 33.0861 19.6415L34.0037 17.2995C34.9667 17.6748 35.999 17.839 37.0309 17.781H37.0975C38.2865 17.7989 39.4675 17.5832 40.5734 17.1461C41.175 16.917 41.7186 16.5578 42.1654 16.0943C42.6122 15.6308 42.9511 15.0743 43.158 14.4647C42.4863 14.9159 41.7483 15.2594 40.9707 15.483C40.2156 15.6952 39.4343 15.7997 38.65 15.7935C38.4979 15.7935 38.3408 15.7935 38.1836 15.7834C37.624 15.7695 37.0695 15.6729 36.5381 15.4968C36.061 15.3393 35.6321 15.0623 35.2923 14.6922C34.9613 14.3245 34.72 13.8852 34.587 13.4087C34.4421 12.8872 34.4096 12.3409 34.4915 11.8059C34.6288 10.8839 34.9452 9.99776 35.423 9.1974C35.9171 8.3584 36.5515 7.61045 37.2986 6.98613C38.8985 5.6364 40.9228 4.89353 43.016 4.88801C44.0852 4.86211 45.1536 4.96595 46.1977 5.19726C46.8016 5.34252 47.4208 5.4147 48.0419 5.41223C48.6373 5.37856 49.2273 5.28121 49.8019 5.12184L46.2933 14.5112C44.9105 18.1883 41.6105 20.0526 36.4715 20.0526ZM43.1769 6.91574C43.0939 6.91574 43.0072 6.91574 42.9179 6.91574C42.1361 6.98001 41.3857 7.25214 40.7444 7.70395C39.8843 8.28533 39.2024 9.09387 38.7745 10.0397C38.5251 10.5686 38.3577 11.1323 38.2779 11.7116C38.1884 12.2001 38.2687 12.7045 38.5055 13.141C38.669 13.3702 38.8903 13.552 39.1469 13.6679C39.4034 13.7839 39.6861 13.8297 39.9662 13.8009C40.8324 13.8009 43.7728 13.3547 45.2235 7.61972C44.9486 7.36868 44.6251 7.17659 44.2732 7.0553C43.9212 6.93401 43.5481 6.88609 43.1769 6.91448V6.91574ZM77.6218 16.1593C76.741 16.2246 75.8566 16.0939 75.0323 15.7766C74.2081 15.4592 73.4644 14.9631 72.8548 14.3239C72.4133 13.7429 72.1218 13.062 72.0061 12.3415C71.8903 11.621 71.9538 10.8831 72.1911 10.193C73.071 6.96853 76.4652 4.71705 80.4314 4.71705C81.1388 4.64465 81.8532 4.74089 82.5161 4.99786C83.1791 5.25483 83.7718 5.66522 84.2455 6.19541C84.6566 6.87454 84.893 7.64494 84.9336 8.43774C84.9742 9.23055 84.8176 10.0211 84.4781 10.7386L84.4379 10.8492H76.0353C75.9241 11.2362 75.8954 11.6422 75.9511 12.041C76.0043 12.4045 76.1516 12.7477 76.3785 13.0366C76.6724 13.3716 77.0391 13.6347 77.4506 13.8057C77.862 13.9768 78.3072 14.0513 78.7519 14.0235C80.1153 14.0226 81.4657 13.7575 82.7282 13.2428L81.6332 15.532C80.3313 15.9302 78.9793 16.141 77.618 16.158L77.6218 16.1593ZM79.9349 6.60523C79.1911 6.58395 78.4609 6.80767 77.8567 7.24196C77.2525 7.67625 76.8078 8.29705 76.591 9.00883H81.368C81.5095 8.7117 81.5793 8.38553 81.5719 8.05651C81.5645 7.72749 81.48 7.4048 81.3252 7.11436C81.1492 6.92611 80.9315 6.78177 80.6896 6.69291C80.4477 6.60405 80.1884 6.57316 79.9324 6.60272L79.9349 6.60523ZM18.4797 15.8865H18.3288C17.5234 15.8825 16.7229 15.7627 15.9516 15.5307C15.1467 15.3084 14.4268 14.8499 13.8849 14.2145C13.5475 13.7465 13.3193 13.2089 13.2171 12.6411C13.1148 12.0733 13.1411 11.4898 13.2941 10.9335C13.4791 10.0116 13.8655 9.1419 14.4255 8.38656C14.9825 7.63701 15.6692 6.99326 16.4532 6.4858C17.2496 5.96592 18.1184 5.56646 19.0315 5.30035C19.9364 5.03014 20.8755 4.8917 21.8198 4.88927C22.7217 4.81556 23.6288 4.94185 24.4763 5.25911C25.3238 5.57637 26.0908 6.07679 26.7225 6.72466C27.0242 7.1066 27.2322 7.55394 27.3297 8.0308C27.4321 8.56972 27.4184 9.12429 27.2895 9.6575C26.8823 11.3634 25.9026 12.8782 24.5138 13.9493C22.7784 15.2569 20.6519 15.9396 18.4797 15.8865ZM21.7481 6.69951C18.9926 6.69951 17.4513 9.38094 17.0893 11.1836C16.9707 11.5533 16.9371 11.9449 16.9911 12.3293C17.0451 12.7138 17.1852 13.081 17.4011 13.4037C17.648 13.6476 17.9457 13.8341 18.2729 13.9499C18.6001 14.0657 18.9489 14.108 19.2943 14.0737C19.8411 14.0737 22.6156 13.8387 23.5483 9.18482C23.6413 8.86216 23.661 8.5228 23.6059 8.19155C23.5509 7.8603 23.4226 7.54553 23.2303 7.27024C23.042 7.0699 22.811 6.91464 22.5543 6.81604C22.2977 6.71744 22.0221 6.67803 21.7481 6.70077V6.69951ZM53.0993 15.8513C52.3878 15.8658 51.6791 15.7587 51.0037 15.5345C50.5063 15.3683 50.0574 15.0825 49.6963 14.7023C49.4506 14.4303 49.2642 14.11 49.1491 13.762C49.0339 13.414 48.9925 13.0458 49.0275 12.6809C49.07 11.9723 49.3147 11.2909 49.7327 10.7172C50.234 10.0727 50.9048 9.58045 51.6699 9.29545C52.7977 8.87249 53.9843 8.62736 55.1874 8.56884C55.875 8.51353 56.5978 8.48587 57.3345 8.48587C58.0712 8.48587 58.833 8.51856 59.5872 8.56884C59.6573 8.40596 59.6875 8.2287 59.6752 8.05181C59.663 7.87492 59.6087 7.70351 59.5168 7.55184C59.2214 7.14327 58.5024 6.93334 57.3798 6.92328H57.1987C55.3761 6.90046 53.5607 7.15478 51.8145 7.67755L52.7372 5.2312L52.9887 5.19098C54.5769 4.90425 56.1883 4.76621 57.8021 4.77864C58.8853 4.75399 59.966 4.89041 61.009 5.18343C61.7736 5.37267 62.4513 5.8159 62.9312 6.44055C63.1666 6.83962 63.2992 7.29094 63.3169 7.75395C63.3347 8.21695 63.2371 8.67711 63.033 9.09306C62.7388 9.86744 62.4409 10.6594 62.153 11.425C61.9619 11.9278 61.7759 12.4143 61.6087 12.8719C61.1788 13.7267 61.0575 14.7037 61.2655 15.6376C60.474 15.4117 59.6518 15.312 58.8292 15.3422C58.6909 15.3422 58.5489 15.3422 58.4068 15.3484C57.7817 15.3731 57.1591 15.4424 56.5438 15.5559C55.4067 15.7599 54.2533 15.8593 53.098 15.8526L53.0993 15.8513ZM57.4502 10.4784C56.8367 10.4779 56.2236 10.5103 55.6135 10.5752C54.8904 10.6077 54.1829 10.796 53.5393 11.1271C53.3387 11.2432 53.1673 11.4035 53.0382 11.5959C52.909 11.7882 52.8254 12.0075 52.7938 12.2371C52.7616 12.3851 52.7627 12.5384 52.7968 12.686C52.8309 12.8336 52.8973 12.9718 52.9912 13.0907C53.2178 13.2957 53.4858 13.4497 53.7771 13.5423C54.0683 13.6349 54.376 13.6639 54.6795 13.6275C54.7662 13.6275 54.8567 13.6275 54.9485 13.6275C55.9867 13.5915 57.0071 13.3474 57.9492 12.9097L58.8456 10.5287C58.3301 10.4922 57.8751 10.4784 57.4502 10.4784ZM7.30644 15.7344C6.07745 15.7468 4.8561 15.5399 3.69978 15.1234C2.68548 14.7671 1.78251 14.1507 1.08122 13.3358C0.638844 12.8046 0.32137 12.1808 0.152212 11.5105C-0.0283917 10.7558 -0.0485208 9.97165 0.0931272 9.20871C0.367654 7.97138 0.896851 6.80477 1.64701 5.7832C2.39718 4.76163 3.35187 3.90747 4.45028 3.27514C5.65592 2.50714 6.96703 1.91891 8.3423 1.52901C9.79393 1.11136 11.297 0.899777 12.8076 0.900451C14.0248 0.895982 15.2302 1.13802 16.3514 1.61198L15.2288 3.83707C14.2146 3.41596 13.1263 3.20224 12.0282 3.20851C11.0951 3.20663 10.1683 3.36131 9.28639 3.6661C8.44644 3.95613 7.66084 4.38441 6.96199 4.93327C5.58642 5.99097 4.64882 7.51845 4.32834 9.22379C4.21855 9.72155 4.21905 10.2373 4.32981 10.7349C4.44057 11.2324 4.6589 11.6997 4.96947 12.1038C5.33057 12.5324 5.79475 12.862 6.31835 13.0618C7.00705 13.3185 7.73821 13.4422 8.47304 13.4263C9.70165 13.3812 10.9107 13.1048 12.037 12.6117L10.8666 15.2856C9.70035 15.5676 8.50619 15.7182 7.30644 15.7344ZM30.6887 15.6464H27.028L32.5417 1.19964H36.2049L30.6887 15.6426V15.6464ZM67.1777 15.571C66.6708 15.644 66.1539 15.5951 65.6697 15.4286C65.1854 15.262 64.7479 14.9824 64.3932 14.613C64.1584 14.1589 64.0428 13.6526 64.0573 13.1416C64.0718 12.6305 64.2159 12.1316 64.4762 11.6915L66.5215 6.54363H64.8194L65.4404 4.80882H67.1576L67.6906 3.38828L71.5876 2.70818L70.8133 4.8063H73.3727L72.7178 6.54112H70.1545C69.8956 7.19859 68.4675 10.755 68.1846 11.4602L68.1721 11.4904C67.8364 12.3465 67.7811 12.9612 68.0112 13.2667C68.1017 13.3759 68.2182 13.4606 68.35 13.5131C68.4817 13.5656 68.6246 13.5842 68.7654 13.5671H68.8635C69.4962 13.5268 70.1184 13.3854 70.7064 13.1485L69.8805 15.175C68.9983 15.4125 68.091 15.5446 67.1777 15.5684V15.571ZM86.4329 5.79062C86.2287 5.79159 86.0263 5.75222 85.8373 5.67478C85.6483 5.59733 85.4765 5.48333 85.3317 5.33932C85.1878 5.19632 85.0737 5.0263 84.9958 4.83904C84.9179 4.65177 84.8778 4.45096 84.8778 4.24814C84.8778 4.04533 84.9179 3.84451 84.9958 3.65725C85.0737 3.46998 85.1878 3.29997 85.3317 3.15697C85.6246 2.86692 86.0207 2.70505 86.4329 2.70692H86.4618C86.7667 2.70727 87.0645 2.79809 87.3177 2.96788C87.5709 3.13767 87.768 3.37878 87.8841 3.66068C88.0001 3.94258 88.0299 4.25258 87.9696 4.55141C87.9093 4.85024 87.7617 5.12445 87.5454 5.33932C87.3986 5.48356 87.2247 5.59744 87.0338 5.67444C86.8429 5.75145 86.6387 5.79007 86.4329 5.78811V5.79062ZM86.4216 3.0916C86.2765 3.09073 86.1329 3.12026 86 3.17829C85.867 3.23631 85.7477 3.32155 85.6497 3.42851C85.4462 3.65501 85.3358 3.94999 85.3405 4.25443C85.3351 4.40204 85.3592 4.54923 85.4114 4.68742C85.4636 4.8256 85.5428 4.95199 85.6444 5.05921C85.746 5.16642 85.8679 5.25231 86.0031 5.31184C86.1383 5.37138 86.284 5.40337 86.4316 5.40594H86.4467C86.5939 5.40698 86.7397 5.37708 86.8746 5.31817C87.0095 5.25927 87.1306 5.17268 87.2299 5.06401C87.4318 4.83912 87.5417 4.54655 87.5379 4.24437C87.5438 4.09495 87.5195 3.94588 87.4662 3.80613C87.413 3.66639 87.332 3.53888 87.2282 3.43127C87.1243 3.32367 86.9998 3.23821 86.862 3.18005C86.7243 3.12189 86.5761 3.09223 86.4266 3.09286L86.4216 3.0916ZM86.2494 4.97727H85.8157V3.55296C86.0184 3.51879 86.2236 3.50155 86.4291 3.50142C86.6248 3.47986 86.8224 3.51938 86.9948 3.61456C87.0432 3.65107 87.082 3.6987 87.108 3.75341C87.1341 3.80811 87.1466 3.86829 87.1444 3.92884C87.1444 4.06963 87.0187 4.19534 86.8188 4.25191V4.26826C86.8979 4.29406 86.9675 4.34269 87.019 4.40802C87.0704 4.47334 87.1014 4.55244 87.108 4.63533C87.1278 4.75124 87.1603 4.86464 87.2048 4.9735H86.722C86.6693 4.88066 86.6364 4.77795 86.6252 4.67179C86.5988 4.52219 86.5259 4.45557 86.3914 4.45557H86.2494V4.9735V4.97727ZM86.409 3.81695C86.3789 3.81544 86.3486 3.81544 86.3185 3.81695H86.2644V4.15512H86.3902C86.5397 4.15512 86.6491 4.08472 86.6491 3.98666C86.6491 3.88861 86.5573 3.81444 86.409 3.81444V3.81695Z" fill="white"/>
</svg>
